<svg width="24" height="24" viewBox="0 0 24 24" fill="none" xmlns="http://www.w3.org/2000/svg">
<path d="M3.83903 5.85796C6.77903 1.94196 12.869 0.802956 17.203 3.49796C21.483 6.15796 23.057 11.275 21.303 16.075C19.648 20.608 15.287 22.403 12.144 20.123C10.967 19.269 10.51 18.198 10.29 16.459L10.184 15.472L10.139 15.074C10.016 14.14 9.82803 13.722 9.43403 13.502C8.89903 13.204 8.54203 13.197 7.83903 13.469L7.48803 13.615L7.30903 13.693C6.29503 14.133 5.62103 14.288 4.76803 14.109L4.56803 14.062L4.40403 14.015C1.61503 13.151 1.20203 9.36796 3.83903 5.85796ZM4.82303 12.574L4.94603 12.611L5.08003 12.641C5.51903 12.728 5.89403 12.656 6.51703 12.399L7.11903 12.142C8.32103 11.649 9.10403 11.602 10.165 12.192C11.082 12.704 11.44 13.49 11.622 14.852L11.675 15.311L11.73 15.843L11.777 16.265C11.949 17.626 12.262 18.355 13.025 18.909C15.3 20.559 18.559 19.218 19.895 15.56C21.411 11.408 20.069 7.04596 16.411 4.77096C12.736 2.48696 7.51203 3.46496 5.03803 6.75796C2.96303 9.52096 3.21803 12.038 4.82303 12.574ZM16.048 10.58C16.0008 10.42 15.986 10.2522 16.0047 10.0864C16.0233 9.92062 16.0749 9.76025 16.1565 9.61474C16.238 9.46923 16.3479 9.34151 16.4796 9.23912C16.6113 9.13673 16.7621 9.06173 16.9232 9.01854C17.0844 8.97536 17.2525 8.96486 17.4178 8.98767C17.583 9.01048 17.742 9.06613 17.8854 9.15134C18.0288 9.23656 18.1537 9.34962 18.2527 9.48385C18.3518 9.61809 18.4229 9.77079 18.462 9.93296C18.5384 10.2499 18.488 10.5842 18.3214 10.8645C18.1549 11.1448 17.8854 11.3489 17.5704 11.4333C17.2555 11.5177 16.9201 11.4757 16.6357 11.3163C16.3512 11.1569 16.1404 10.8927 16.048 10.58ZM16.542 14.068C16.4995 13.9094 16.4887 13.744 16.5101 13.5812C16.5316 13.4185 16.5849 13.2615 16.6669 13.1194C16.749 12.9772 16.8583 12.8526 16.9886 12.7527C17.1188 12.6527 17.2675 12.5794 17.426 12.537C17.5846 12.4945 17.75 12.4836 17.9127 12.5051C18.0755 12.5265 18.2324 12.5798 18.3746 12.6619C18.5168 12.744 18.6414 12.8532 18.7413 12.9835C18.8412 13.1137 18.9145 13.2624 18.957 13.421C19.0428 13.7412 18.9979 14.0824 18.8321 14.3695C18.6663 14.6567 18.3933 14.8662 18.073 14.952C17.7528 15.0378 17.4116 14.9928 17.1244 14.827C16.8373 14.6613 16.6278 14.3882 16.542 14.068ZM14.07 7.57696C13.9842 7.25671 14.0292 6.91549 14.1949 6.62837C14.3607 6.34125 14.6338 6.13175 14.954 6.04596C15.2743 5.96016 15.6155 6.00509 15.9026 6.17088C16.1897 6.33666 16.3992 6.60971 16.485 6.92996C16.5275 7.08853 16.5383 7.25391 16.5169 7.41667C16.4955 7.57943 16.4422 7.73637 16.3601 7.87854C16.278 8.0207 16.1687 8.14531 16.0385 8.24524C15.9082 8.34517 15.7596 8.41847 15.601 8.46096C15.2808 8.54675 14.9396 8.50182 14.6524 8.33604C14.5103 8.25395 14.3857 8.14466 14.2857 8.01442C14.1858 7.88418 14.1125 7.73553 14.07 7.57696ZM14.042 16.575C13.9948 16.415 13.98 16.2472 13.9987 16.0814C14.0173 15.9156 14.0689 15.7553 14.1505 15.6097C14.232 15.4642 14.3419 15.3365 14.4736 15.2341C14.6053 15.1317 14.7561 15.0567 14.9172 15.0135C15.0784 14.9704 15.2465 14.9599 15.4118 14.9827C15.577 15.0055 15.736 15.0611 15.8794 15.1463C16.0228 15.2316 16.1477 15.3446 16.2467 15.4789C16.3458 15.6131 16.4169 15.7658 16.456 15.928C16.5324 16.2449 16.482 16.5792 16.3154 16.8595C16.1489 17.1398 15.8794 17.3439 15.5644 17.4283C15.2495 17.5127 14.9141 17.4707 14.6297 17.3113C14.3452 17.1519 14.1344 16.8877 14.042 16.575ZM10.545 6.60496C10.501 6.44588 10.4889 6.27966 10.5095 6.11589C10.5301 5.95212 10.5828 5.79405 10.6648 5.65079C10.7468 5.50753 10.8563 5.38193 10.9871 5.28122C11.1179 5.18052 11.2673 5.10671 11.4267 5.06406C11.5862 5.02141 11.7525 5.01076 11.9161 5.03272C12.0797 5.05469 12.2373 5.10883 12.3799 5.19203C12.5224 5.27523 12.6471 5.38584 12.7466 5.51747C12.8462 5.6491 12.9187 5.79915 12.96 5.95896C13.0425 6.27814 12.9955 6.61698 12.8293 6.9017C12.6632 7.18642 12.3912 7.39396 12.0728 7.47915C11.7543 7.56434 11.4151 7.52027 11.1289 7.35654C10.8428 7.19282 10.6329 6.92268 10.545 6.60496Z" fill="#CBCBCB"/>
</svg>
